<?xml version="1.0" encoding="utf-8" ?>
<svg xmlns="http://www.w3.org/2000/svg" xmlns:xlink="http://www.w3.org/1999/xlink" width="512" height="512">
	<path d="M253.182 14.3451C267.503 14.0559 274.522 18.6688 285.948 27.3034L339.25 66.9743C345.434 71.5213 344.871 70.8927 352.804 70.8869L380.737 70.8557C386.618 70.8488 393.444 70.1521 399.146 71.5206C410.689 74.2905 419.556 84.1058 420.72 95.989C421.051 99.3603 420.863 102.904 420.868 106.294L420.919 123.861C421.003 128.735 423.549 128.545 427.5 131.507L462.246 157.831C480.743 171.76 495.137 179.721 495.466 206.5L495.486 421.89C495.491 431.577 496.206 441.831 494.686 451.415C491.519 471.396 475.997 488.627 455.967 492.803C448.161 494.43 439.659 493.762 431.699 493.764L260.125 493.741L78.6807 493.743C72.2514 493.738 65.5282 494.119 59.1487 493.317C38.3166 490.697 18.8054 470.93 16.7808 449.75C16.3997 445.763 16.5396 441.684 16.5374 437.681L16.5767 209.003C16.8189 187.381 24.362 176.842 41.75 163.837L82.1639 133.337C83.9647 132.032 91.2956 127.482 91.298 125.789L91.2708 104.387C91.2688 100.595 90.983 96.35 91.6956 92.625C94.5451 77.7284 107.114 70.8731 121.125 70.8601L164.578 70.8428C167.635 70.829 167.58 70.3837 169.862 68.7524L216.656 34.4061C228.737 25.5168 237.636 16.2252 253.182 14.3451ZM118.186 91.7654C110.018 93.9004 112.473 104.166 112.471 110.872L112.473 238.517C112.476 241.631 112.822 245.116 112.279 248.16C118.288 254.379 125.915 259.203 132.742 264.488L223.005 333.704C232.607 340.918 247.689 356.764 260.25 353.3L260.574 353.213C263.465 352.411 266.183 350.514 268.623 348.816L337.374 296.941L392.806 254.079C397.895 250.024 399.706 251.099 399.7 245.18L399.633 99.2406C399.372 90.9138 393.265 91.7312 387.703 91.739L118.186 91.7654ZM197.214 340.696L55.375 461.95C53.5497 463.537 50.9841 465.004 49.5189 466.879C58.7115 473.121 59.5556 472.721 70.2701 472.733L348.462 472.74L447.75 472.518C453.1 472.16 457.696 470.472 461.75 466.913L317.955 343.626C317.409 343.124 315.284 340.786 314.709 340.785L288.25 360.969C256.297 384.776 244.93 376.97 217.903 356.347L197.214 340.696ZM473.523 219.375L331.902 327.662C332.551 328.786 334.065 329.851 335.044 330.709L397.415 383.984L465.638 442.125C466.968 443.268 473.278 448.147 473.836 449.005L474.059 221.077C474.105 220.356 474.321 219.908 473.963 219.261L473.523 219.375ZM38.0104 218.921L38.0144 448.757L115.058 382.943L175.406 331.734C176.866 330.511 179.192 329.106 180.269 327.627L47.125 225.894C44.1317 223.67 41.158 220.815 38.0104 218.921ZM91.0289 152.955C88.8875 154.418 86.9522 156.163 84.913 157.761L56.75 179.033C51.0409 183.374 45.2169 187.927 40.7091 193.564L63.0697 211.282L85.7314 228.122C87.4444 229.45 89.94 230.676 91.2522 232.35L91.0289 152.955ZM420.863 152.927L420.753 232.224L449.871 210.322C457.077 204.796 464.947 199.347 471.414 192.988C469.292 188.996 462.083 184.259 458.551 181.539L433.312 162.502C429.154 159.388 424.538 156.416 420.863 152.927ZM254.189 36.3398C248.523 37.0248 243.931 40.7497 239.418 43.9183L224.305 55.1485C217.132 60.4651 209.645 65.2771 202.862 71.0796L257.64 70.8718L309.061 70.7857C306.98 69.8112 305.087 67.8832 303.183 66.5128L293.985 59.8767C286.067 54.028 269.292 39.1143 260.125 36.7502L259.744 36.6497C258.761 36.4277 254.94 35.8642 254.189 36.3398Z"/>
	<path d="M256.531 131.834C283.222 131.215 307.503 137.23 321.343 162.946C335.696 189.615 331.684 230.894 302.625 246.168C293.612 250.905 281.556 252.792 272.25 247.741L271.529 247.342C267.389 244.686 266.801 240.912 265.722 236.465L265.051 237.125C260.043 241.999 253.264 245.254 246.314 246.122C226.174 248.636 216.969 235.087 217.521 216.321C217.992 200.341 222.499 185.629 234.444 174.453C245.933 163.703 265.659 161.495 276.951 173.693L278.888 165.749C284.525 165.713 290.175 165.684 295.716 166.869C296.117 170.128 295.535 173.076 294.928 176.25L286.686 215.499C286.007 219.558 282.915 229.121 285.008 232.875C286.086 233.55 288.651 233.397 289.891 233.157C303.445 230.536 308.318 214.66 309.755 202.875C310.932 193.222 309.485 184.191 305.663 175.185C299.006 159.866 290.231 153.808 274.398 150.627C223.986 140.498 192.105 191.842 203.726 236.25L204.231 237.994C213.252 265.549 242.163 268.151 266.375 262.25C270.884 261.151 277.325 258.619 279.267 264.99L279.375 265.361C280.189 268.034 279.715 271.319 279.146 274.018C275.556 278.506 261.318 280.998 256.07 281.599C206.494 287.285 175.915 256.525 183.125 206.386C187.957 172.783 208.982 141.708 243.408 133.637C247.742 132.621 252.118 132.295 256.531 131.834ZM257.198 183.838C252.786 184.677 249.299 186.946 246.742 190.684L246.53 191C241.727 197.87 239.496 206.23 239.463 214.558C239.439 220.715 241.051 229.815 249.487 228.166L250.117 227.981C265.272 224.112 275.93 188.436 259.973 184.125L259.588 184.017C258.701 183.776 258.106 183.713 257.198 183.838Z"/>
</svg>
